<?xml version="1.0" standalone="no"?>
<!DOCTYPE svg PUBLIC "-//W3C//DTD SVG 20010904//EN"
 "http://www.w3.org/TR/2001/REC-SVG-20010904/DTD/svg10.dtd">
<svg version="1.0" xmlns="http://www.w3.org/2000/svg"
 width="80.000000pt" height="80.000000pt" viewBox="0 0 80.000000 80.000000"
 preserveAspectRatio="xMidYMid meet">

<g transform="translate(0.000000,80.000000) scale(0.100000,-0.100000)"
fill="currentColor" stroke="none">
<path d="M29 771 c-29 -30 -36 -55 -20 -80 12 -19 39 -7 43 20 2 12 10 26 19
32 24 15 66 1 72 -25 5 -17 -9 -36 -69 -95 -101 -98 -98 -108 26 -108 88 0 95
1 95 20 0 17 -8 20 -59 23 l-58 3 56 52 c51 48 56 57 56 94 0 84 -100 124
-161 64z"/>
<path d="M260 709 c-41 -50 -76 -100 -78 -110 -3 -17 4 -19 67 -19 67 0 71 -1
71 -22 0 -32 15 -52 34 -45 10 4 16 18 16 37 0 19 5 30 14 30 25 0 30 22 8 39
-18 14 -22 28 -24 96 -2 61 -6 80 -18 83 -9 1 -47 -36 -90 -89z m60 -49 c0
-38 -2 -40 -30 -40 -16 0 -30 3 -30 6 0 7 51 74 56 74 2 0 4 -18 4 -40z"/>
<path d="M430 772 c0 -15 11 -22 48 -32 109 -27 192 -96 241 -199 22 -48 26
-70 26 -146 0 -80 -4 -97 -29 -148 -35 -68 -108 -140 -174 -170 -67 -31 -217
-31 -284 0 -107 49 -191 165 -206 281 -6 48 -10 57 -27 57 -18 0 -20 -6 -18
-60 2 -45 11 -77 37 -131 43 -86 103 -144 194 -187 61 -29 76 -32 162 -32 86
0 101 3 162 32 126 59 204 161 229 296 15 82 3 163 -37 244 -51 105 -175 199
-279 211 -40 4 -45 2 -45 -16z"/>
<path d="M362 449 c-106 -106 -192 -196 -192 -201 0 -5 7 -11 16 -15 11 -4 71
49 209 187 178 178 211 220 171 220 -7 0 -99 -86 -204 -191z"/>
<path d="M463 414 c-9 -23 7 -33 63 -36 l51 -3 -63 -100 c-35 -55 -64 -105
-64 -112 0 -22 22 -26 40 -7 36 38 161 247 156 260 -8 21 -174 20 -183 -2z"/>
</g>
</svg>
