<?xml version="1.0" standalone="no"?>
<!DOCTYPE svg PUBLIC "-//W3C//DTD SVG 20010904//EN"
 "http://www.w3.org/TR/2001/REC-SVG-20010904/DTD/svg10.dtd">
<svg version="1.0" xmlns="http://www.w3.org/2000/svg"
 width="106.000000pt" height="106.000000pt" viewBox="0 0 106.000000 106.000000"
 preserveAspectRatio="xMidYMid meet">

<g transform="translate(0.000000,106.000000) scale(0.100000,-0.100000)"
fill="currentColor" stroke="none">
<path d="M665 955 c-152 -67 -138 -46 -133 -193 5 -137 21 -187 84 -261 29
-35 136 -111 155 -111 42 0 173 116 208 186 38 73 57 281 29 315 -11 12 -229
111 -240 108 -2 0 -48 -20 -103 -44z m199 -62 l88 -37 -4 -110 c-3 -100 -6
-116 -31 -158 -15 -27 -53 -67 -83 -89 -64 -49 -74 -47 -151 23 -65 61 -85
112 -91 233 l-4 100 83 37 c46 20 89 37 94 37 6 1 50 -15 99 -36z"/>
<path d="M796 748 l-49 -61 -26 32 c-28 34 -58 41 -68 15 -7 -19 65 -127 88
-132 20 -4 149 158 149 187 0 15 -6 21 -22 21 -16 0 -38 -19 -72 -62z"/>
<path d="M56 788 c-14 -19 -16 -66 -16 -311 l0 -288 25 -25 25 -25 446 3 446
3 19 24 c17 21 19 38 17 144 -3 103 -6 121 -21 131 -34 21 -47 -16 -47 -130 0
-89 -2 -102 -17 -106 -15 -3 -757 -2 -815 1 -16 1 -18 17 -18 181 l0 180 174
0 c181 0 205 5 190 44 -5 14 -29 16 -185 16 l-179 0 0 60 0 60 174 0 c141 0
176 3 186 15 7 8 10 22 6 30 -4 13 -36 15 -200 15 -190 0 -195 -1 -210 -22z"/>
<path d="M170 435 c-24 -29 5 -45 85 -45 80 0 109 16 85 45 -9 11 -33 15 -85
15 -52 0 -76 -4 -85 -15z"/>
</g>
</svg>
