<?xml version="1.0" standalone="no"?>
<!DOCTYPE svg PUBLIC "-//W3C//DTD SVG 20010904//EN"
 "http://www.w3.org/TR/2001/REC-SVG-20010904/DTD/svg10.dtd">
<svg version="1.0" xmlns="http://www.w3.org/2000/svg"
 width="90.000000pt" height="90.000000pt" viewBox="0 0 90.000000 90.000000"
 preserveAspectRatio="xMidYMid meet">

<g transform="translate(0.000000,90.000000) scale(0.100000,-0.100000)"
fill="currentColor" stroke="none">
<path d="M173 715 c-10 -26 8 -33 95 -37 59 -2 85 -7 92 -18 19 -31 -9 -40
-120 -40 -83 0 -110 -3 -120 -15 -10 -12 -10 -18 0 -30 9 -11 45 -15 169 -17
148 -3 156 -4 156 -23 0 -19 -7 -20 -100 -22 -131 -4 -147 -8 -143 -36 3 -20
9 -22 73 -25 79 -3 100 -14 84 -43 -9 -17 -22 -19 -139 -19 l-130 0 0 -25 c0
-23 4 -25 44 -25 51 0 76 -20 56 -45 -7 -8 -25 -15 -40 -15 -27 0 -46 -22 -34
-41 3 -5 24 -9 48 -9 34 0 48 -6 71 -30 38 -39 74 -39 118 0 33 29 39 30 127
30 89 0 93 -1 120 -30 38 -40 82 -41 119 -1 18 19 40 31 61 33 42 4 49 25 53
158 2 89 0 99 -30 163 l-32 67 -83 0 -83 0 0 52 0 53 -213 3 c-186 2 -213 0
-219 -13z m591 -216 c14 -33 24 -65 20 -70 -3 -5 -34 -9 -68 -9 -77 0 -89 11
-80 71 9 68 10 69 57 69 l44 0 27 -61z m-444 -239 c0 -24 -26 -38 -42 -22 -8
8 -8 15 2 27 18 21 40 19 40 -5z m364 11 c10 -16 -5 -41 -25 -41 -21 0 -25 20
-7 38 14 14 25 15 32 3z"/>
<path d="M72 501 c-8 -5 -12 -17 -10 -27 4 -25 65 -33 74 -10 13 33 -32 58
-64 37z"/>
</g>
</svg>
